<?xml version="1.0" ?><!DOCTYPE svg  PUBLIC '-//W3C//DTD SVG 1.1//EN'  'http://www.w3.org/Graphics/SVG/1.1/DTD/svg11.dtd'><svg enable-background="new 0 0 24 24" height="24px" id="Layer_1" version="1.1" viewBox="0 0 24 24" width="24px" xml:space="preserve" xmlns="http://www.w3.org/2000/svg" xmlns:xlink="http://www.w3.org/1999/xlink"><path d="M22.9,6h-4.4C18.8,5.4,19,4.7,19,4c0-2.2-1.8-4-4-4c-1.2,0-2.3,0.5-3,1.4C11.3,0.5,10.2,0,9,0C6.8,0,5,1.8,5,4  c0,0.7,0.2,1.4,0.6,2H1.1C0.5,6,0,6.5,0,7.1v15.8C0,23.5,0.5,24,1.1,24h21.8c0.6,0,1.1-0.5,1.1-1.1V7.1C24,6.5,23.5,6,22.9,6z M15,2  c1.1,0,2,0.9,2,2s-0.9,2-2,2s-2-0.9-2-2S13.9,2,15,2z M7,4c0-1.1,0.9-2,2-2s2,0.9,2,2s-0.9,2-2,2S7,5.1,7,4z M2,8h8v5H2V8z M2,14h8  v2H2V14z M2,22v-5h8v5H2z M11,22V8h2v14H11z M22,22h-8v-5h8V22z M22,16h-8v-2h8V16z M22,13h-8V8h8V13z"/></svg>